<mxfile host="Electron" modified="2024-06-16T20:39:32.922Z" agent="Mozilla/5.0 (Windows NT 10.0; Win64; x64) AppleWebKit/537.36 (KHTML, like Gecko) draw.io/24.2.5 Chrome/120.0.6099.109 Electron/28.1.0 Safari/537.36" etag="u37l0yN01oa8o8JJ54li" version="24.2.5" type="device" pages="3">
  <diagram name="Perceptron" id="r-9WZbuj8T47tdGgC2nj">
    <mxGraphModel dx="896" dy="523" grid="1" gridSize="10" guides="1" tooltips="1" connect="1" arrows="1" fold="1" page="1" pageScale="1" pageWidth="850" pageHeight="1100" math="1" shadow="0">
      <root>
        <mxCell id="0" />
        <mxCell id="1" parent="0" />
        <mxCell id="0ZhShGxm8KNflRpx0BDU-1" value="" style="rounded=0;whiteSpace=wrap;html=1;fillColor=default;strokeColor=none;sketch=1;curveFitting=1;jiggle=2;fontFamily=Pacifico;fontSource=https%3A%2F%2Ffonts.googleapis.com%2Fcss%3Ffamily%3DPacifico;" parent="1" vertex="1">
          <mxGeometry x="70" y="350" width="690" height="220" as="geometry" />
        </mxCell>
        <mxCell id="Z4WF1ogDrh1AhRm3Ekj2-1" value="1" style="ellipse;whiteSpace=wrap;html=1;aspect=fixed;fontFamily=Pacifico;fontSource=https%3A%2F%2Ffonts.googleapis.com%2Fcss%3Ffamily%3DPacifico;fillColor=#e1d5e7;strokeColor=#9673a6;sketch=1;curveFitting=1;jiggle=2;fillStyle=solid;" parent="1" vertex="1">
          <mxGeometry x="80" y="360" width="40" height="40" as="geometry" />
        </mxCell>
        <mxCell id="Bedv5G_fQv0irXpNr04c-1" value="X&lt;span style=&quot;font-size: 10px;&quot;&gt;1&lt;/span&gt;" style="ellipse;whiteSpace=wrap;html=1;aspect=fixed;fontFamily=Pacifico;fontSource=https%3A%2F%2Ffonts.googleapis.com%2Fcss%3Ffamily%3DPacifico;fillColor=#dae8fc;strokeColor=#6c8ebf;sketch=1;curveFitting=1;jiggle=2;fillStyle=solid;" parent="1" vertex="1">
          <mxGeometry x="80" y="440" width="40" height="40" as="geometry" />
        </mxCell>
        <mxCell id="Bedv5G_fQv0irXpNr04c-2" value="X&lt;sub&gt;2&lt;/sub&gt;" style="ellipse;whiteSpace=wrap;html=1;aspect=fixed;fontFamily=Pacifico;fontSource=https%3A%2F%2Ffonts.googleapis.com%2Fcss%3Ffamily%3DPacifico;fillColor=#dae8fc;strokeColor=#6c8ebf;sketch=1;curveFitting=1;jiggle=2;fillStyle=solid;" parent="1" vertex="1">
          <mxGeometry x="80" y="520" width="40" height="40" as="geometry" />
        </mxCell>
        <mxCell id="Bedv5G_fQv0irXpNr04c-12" value="" style="edgeStyle=orthogonalEdgeStyle;rounded=0;orthogonalLoop=1;jettySize=auto;html=1;fontFamily=Pacifico;fontSource=https%3A%2F%2Ffonts.googleapis.com%2Fcss%3Ffamily%3DPacifico;sketch=1;curveFitting=1;jiggle=2;" parent="1" source="Bedv5G_fQv0irXpNr04c-3" target="Bedv5G_fQv0irXpNr04c-4" edge="1">
          <mxGeometry relative="1" as="geometry" />
        </mxCell>
        <mxCell id="Bedv5G_fQv0irXpNr04c-3" value="&lt;font style=&quot;font-size: 28px;&quot;&gt;\( \sum \)&lt;/font&gt;" style="ellipse;whiteSpace=wrap;html=1;aspect=fixed;fillColor=#b0e3e6;strokeColor=#0E8088;fontFamily=Pacifico;fontSource=https%3A%2F%2Ffonts.googleapis.com%2Fcss%3Ffamily%3DPacifico;fontColor=#0E8088;sketch=1;curveFitting=1;jiggle=2;" parent="1" vertex="1">
          <mxGeometry x="200" y="420" width="80" height="80" as="geometry" />
        </mxCell>
        <mxCell id="Bedv5G_fQv0irXpNr04c-13" style="edgeStyle=orthogonalEdgeStyle;rounded=0;orthogonalLoop=1;jettySize=auto;html=1;exitX=1;exitY=0.5;exitDx=0;exitDy=0;exitPerimeter=0;fontFamily=Pacifico;fontSource=https%3A%2F%2Ffonts.googleapis.com%2Fcss%3Ffamily%3DPacifico;sketch=1;curveFitting=1;jiggle=2;" parent="1" source="Bedv5G_fQv0irXpNr04c-4" edge="1">
          <mxGeometry relative="1" as="geometry">
            <mxPoint x="420" y="460" as="targetPoint" />
          </mxGeometry>
        </mxCell>
        <mxCell id="Bedv5G_fQv0irXpNr04c-4" value="" style="pointerEvents=1;verticalLabelPosition=bottom;shadow=0;dashed=0;align=center;html=1;verticalAlign=top;shape=mxgraph.electrical.signal_sources.source;aspect=fixed;points=[[0.5,0,0],[1,0.5,0],[0.5,1,0],[0,0.5,0]];elSignalType=stepOn;fillColor=#d5e8d4;strokeColor=#82b366;fontFamily=Pacifico;fontSource=https%3A%2F%2Ffonts.googleapis.com%2Fcss%3Ffamily%3DPacifico;sketch=1;curveFitting=1;jiggle=2;fillStyle=auto;" parent="1" vertex="1">
          <mxGeometry x="320" y="430" width="60" height="60" as="geometry" />
        </mxCell>
        <mxCell id="Bedv5G_fQv0irXpNr04c-5" value="" style="endArrow=classic;html=1;rounded=0;exitX=1;exitY=0.5;exitDx=0;exitDy=0;entryX=0;entryY=0;entryDx=0;entryDy=0;fontFamily=Pacifico;fontSource=https%3A%2F%2Ffonts.googleapis.com%2Fcss%3Ffamily%3DPacifico;sketch=1;curveFitting=1;jiggle=2;" parent="1" source="Z4WF1ogDrh1AhRm3Ekj2-1" target="Bedv5G_fQv0irXpNr04c-3" edge="1">
          <mxGeometry width="50" height="50" relative="1" as="geometry">
            <mxPoint x="-10" y="490" as="sourcePoint" />
            <mxPoint x="40" y="440" as="targetPoint" />
          </mxGeometry>
        </mxCell>
        <mxCell id="Bedv5G_fQv0irXpNr04c-6" value="" style="endArrow=classic;html=1;rounded=0;exitX=1;exitY=0.5;exitDx=0;exitDy=0;entryX=0;entryY=0.5;entryDx=0;entryDy=0;fontFamily=Pacifico;fontSource=https%3A%2F%2Ffonts.googleapis.com%2Fcss%3Ffamily%3DPacifico;sketch=1;curveFitting=1;jiggle=2;" parent="1" source="Bedv5G_fQv0irXpNr04c-1" target="Bedv5G_fQv0irXpNr04c-3" edge="1">
          <mxGeometry width="50" height="50" relative="1" as="geometry">
            <mxPoint x="130" y="390" as="sourcePoint" />
            <mxPoint x="210" y="470" as="targetPoint" />
          </mxGeometry>
        </mxCell>
        <mxCell id="Bedv5G_fQv0irXpNr04c-7" value="" style="endArrow=classic;html=1;rounded=0;exitX=1;exitY=0.5;exitDx=0;exitDy=0;entryX=0;entryY=1;entryDx=0;entryDy=0;fontFamily=Pacifico;fontSource=https%3A%2F%2Ffonts.googleapis.com%2Fcss%3Ffamily%3DPacifico;sketch=1;curveFitting=1;jiggle=2;" parent="1" source="Bedv5G_fQv0irXpNr04c-2" target="Bedv5G_fQv0irXpNr04c-3" edge="1">
          <mxGeometry width="50" height="50" relative="1" as="geometry">
            <mxPoint x="130" y="470" as="sourcePoint" />
            <mxPoint x="210" y="470" as="targetPoint" />
          </mxGeometry>
        </mxCell>
        <mxCell id="Bedv5G_fQv0irXpNr04c-8" value="B" style="text;html=1;align=center;verticalAlign=middle;whiteSpace=wrap;rounded=0;fontFamily=Pacifico;fontSource=https%3A%2F%2Ffonts.googleapis.com%2Fcss%3Ffamily%3DPacifico;sketch=1;curveFitting=1;jiggle=2;" parent="1" vertex="1">
          <mxGeometry x="140" y="370" width="40" height="40" as="geometry" />
        </mxCell>
        <mxCell id="Bedv5G_fQv0irXpNr04c-10" value="W&lt;sub&gt;1&lt;/sub&gt;" style="text;html=1;align=center;verticalAlign=middle;whiteSpace=wrap;rounded=0;fontFamily=Pacifico;fontSource=https%3A%2F%2Ffonts.googleapis.com%2Fcss%3Ffamily%3DPacifico;sketch=1;curveFitting=1;jiggle=2;" parent="1" vertex="1">
          <mxGeometry x="140" y="430" width="40" height="40" as="geometry" />
        </mxCell>
        <mxCell id="Bedv5G_fQv0irXpNr04c-11" value="W&lt;sub&gt;2&lt;/sub&gt;" style="text;html=1;align=center;verticalAlign=middle;whiteSpace=wrap;rounded=0;fontFamily=Pacifico;fontSource=https%3A%2F%2Ffonts.googleapis.com%2Fcss%3Ffamily%3DPacifico;sketch=1;curveFitting=1;jiggle=2;" parent="1" vertex="1">
          <mxGeometry x="140" y="510" width="40" height="40" as="geometry" />
        </mxCell>
        <mxCell id="Bedv5G_fQv0irXpNr04c-14" value="" style="ellipse;whiteSpace=wrap;html=1;fontFamily=Pacifico;fontSource=https%3A%2F%2Ffonts.googleapis.com%2Fcss%3Ffamily%3DPacifico;fillColor=#fff2cc;strokeColor=#d6b656;sketch=1;curveFitting=1;jiggle=2;" parent="1" vertex="1">
          <mxGeometry x="420" y="430" width="60" height="60" as="geometry" />
        </mxCell>
        <mxCell id="gpbqa65LmEf_NwB6TyDZ-7" value="&lt;font data-font-src=&quot;https://fonts.googleapis.com/css?family=Lato&quot; style=&quot;font-size: 20px;&quot;&gt;\( y = f( b + ~\sum x_i * w_i ) \)&lt;/font&gt;" style="text;html=1;align=center;verticalAlign=middle;whiteSpace=wrap;rounded=0;sketch=1;curveFitting=1;jiggle=2;fontFamily=Pacifico;fontSource=https%3A%2F%2Ffonts.googleapis.com%2Fcss%3Ffamily%3DPacifico;" parent="1" vertex="1">
          <mxGeometry x="520" y="420" width="240" height="70" as="geometry" />
        </mxCell>
        <mxCell id="gpbqa65LmEf_NwB6TyDZ-9" style="edgeStyle=orthogonalEdgeStyle;rounded=0;orthogonalLoop=1;jettySize=auto;html=1;exitX=0.5;exitY=1;exitDx=0;exitDy=0;fillColor=#fff2cc;strokeColor=#D6B656;endArrow=block;endFill=1;strokeWidth=4;sketch=1;curveFitting=1;jiggle=2;fontFamily=Pacifico;fontSource=https%3A%2F%2Ffonts.googleapis.com%2Fcss%3Ffamily%3DPacifico;curved=1;" parent="1" source="gpbqa65LmEf_NwB6TyDZ-8" edge="1">
          <mxGeometry relative="1" as="geometry">
            <mxPoint x="550" y="450" as="targetPoint" />
          </mxGeometry>
        </mxCell>
        <mxCell id="gpbqa65LmEf_NwB6TyDZ-8" value="&lt;font color=&quot;#d6b656&quot;&gt;Output&lt;/font&gt;" style="text;html=1;align=center;verticalAlign=middle;whiteSpace=wrap;rounded=0;sketch=1;curveFitting=1;jiggle=2;fontFamily=Pacifico;fontSource=https%3A%2F%2Ffonts.googleapis.com%2Fcss%3Ffamily%3DPacifico;" parent="1" vertex="1">
          <mxGeometry x="520" y="380" width="60" height="20" as="geometry" />
        </mxCell>
        <mxCell id="gpbqa65LmEf_NwB6TyDZ-10" style="edgeStyle=orthogonalEdgeStyle;rounded=0;orthogonalLoop=1;jettySize=auto;html=1;exitX=0.5;exitY=0;exitDx=0;exitDy=0;fillColor=#d5e8d4;strokeColor=#82B366;endArrow=block;endFill=1;strokeWidth=4;sketch=1;curveFitting=1;jiggle=2;fontFamily=Pacifico;fontSource=https%3A%2F%2Ffonts.googleapis.com%2Fcss%3Ffamily%3DPacifico;curved=1;entryX=0.292;entryY=0.714;entryDx=0;entryDy=0;entryPerimeter=0;" parent="1" source="gpbqa65LmEf_NwB6TyDZ-11" target="gpbqa65LmEf_NwB6TyDZ-7" edge="1">
          <mxGeometry relative="1" as="geometry">
            <mxPoint x="580" y="480" as="targetPoint" />
          </mxGeometry>
        </mxCell>
        <mxCell id="gpbqa65LmEf_NwB6TyDZ-11" value="&lt;font color=&quot;#82b366&quot;&gt;Activation&lt;/font&gt;" style="text;html=1;align=center;verticalAlign=middle;whiteSpace=wrap;rounded=0;sketch=1;curveFitting=1;jiggle=2;fontFamily=Pacifico;fontSource=https%3A%2F%2Ffonts.googleapis.com%2Fcss%3Ffamily%3DPacifico;" parent="1" vertex="1">
          <mxGeometry x="560" y="530" width="60" height="20" as="geometry" />
        </mxCell>
        <mxCell id="gpbqa65LmEf_NwB6TyDZ-14" style="edgeStyle=orthogonalEdgeStyle;rounded=0;orthogonalLoop=1;jettySize=auto;html=1;exitX=0.5;exitY=0;exitDx=0;exitDy=0;fillColor=#b0e3e6;strokeColor=#0E8088;endArrow=block;endFill=1;strokeWidth=4;sketch=1;curveFitting=1;jiggle=2;fontFamily=Pacifico;fontSource=https%3A%2F%2Ffonts.googleapis.com%2Fcss%3Ffamily%3DPacifico;curved=1;" parent="1" edge="1">
          <mxGeometry relative="1" as="geometry">
            <mxPoint x="655" y="470" as="targetPoint" />
            <mxPoint x="655" y="529" as="sourcePoint" />
          </mxGeometry>
        </mxCell>
        <mxCell id="gpbqa65LmEf_NwB6TyDZ-15" value="&lt;font color=&quot;#0e8088&quot;&gt;Sum&lt;/font&gt;" style="text;html=1;align=center;verticalAlign=middle;whiteSpace=wrap;rounded=0;sketch=1;curveFitting=1;jiggle=2;fontFamily=Pacifico;fontSource=https%3A%2F%2Ffonts.googleapis.com%2Fcss%3Ffamily%3DPacifico;" parent="1" vertex="1">
          <mxGeometry x="625" y="529" width="60" height="20" as="geometry" />
        </mxCell>
        <mxCell id="gpbqa65LmEf_NwB6TyDZ-16" style="edgeStyle=orthogonalEdgeStyle;rounded=0;orthogonalLoop=1;jettySize=auto;html=1;exitX=0.5;exitY=1;exitDx=0;exitDy=0;fillColor=#dae8fc;strokeColor=#6C8EBF;endArrow=block;endFill=1;strokeWidth=4;sketch=1;curveFitting=1;jiggle=2;fontFamily=Pacifico;fontSource=https%3A%2F%2Ffonts.googleapis.com%2Fcss%3Ffamily%3DPacifico;curved=1;" parent="1" source="gpbqa65LmEf_NwB6TyDZ-17" edge="1">
          <mxGeometry relative="1" as="geometry">
            <mxPoint x="680" y="449" as="targetPoint" />
          </mxGeometry>
        </mxCell>
        <mxCell id="gpbqa65LmEf_NwB6TyDZ-17" value="&lt;font color=&quot;#6c8ebf&quot;&gt;Inputs&lt;/font&gt;" style="text;html=1;align=center;verticalAlign=middle;whiteSpace=wrap;rounded=0;sketch=1;curveFitting=1;jiggle=2;fontFamily=Pacifico;fontSource=https%3A%2F%2Ffonts.googleapis.com%2Fcss%3Ffamily%3DPacifico;" parent="1" vertex="1">
          <mxGeometry x="630" y="380" width="60" height="20" as="geometry" />
        </mxCell>
        <mxCell id="gpbqa65LmEf_NwB6TyDZ-18" style="edgeStyle=orthogonalEdgeStyle;rounded=0;orthogonalLoop=1;jettySize=auto;html=1;exitX=0.5;exitY=1;exitDx=0;exitDy=0;endArrow=block;endFill=1;strokeWidth=4;fontColor=default;sketch=1;curveFitting=1;jiggle=2;fontFamily=Pacifico;fontSource=https%3A%2F%2Ffonts.googleapis.com%2Fcss%3Ffamily%3DPacifico;curved=1;" parent="1" source="gpbqa65LmEf_NwB6TyDZ-19" edge="1">
          <mxGeometry relative="1" as="geometry">
            <mxPoint x="720" y="450" as="targetPoint" />
          </mxGeometry>
        </mxCell>
        <mxCell id="gpbqa65LmEf_NwB6TyDZ-19" value="&lt;font&gt;Weights&lt;/font&gt;" style="text;html=1;align=center;verticalAlign=middle;whiteSpace=wrap;rounded=0;fontColor=default;sketch=1;curveFitting=1;jiggle=2;fontFamily=Pacifico;fontSource=https%3A%2F%2Ffonts.googleapis.com%2Fcss%3Ffamily%3DPacifico;" parent="1" vertex="1">
          <mxGeometry x="690" y="380" width="60" height="20" as="geometry" />
        </mxCell>
        <mxCell id="gpbqa65LmEf_NwB6TyDZ-21" style="edgeStyle=orthogonalEdgeStyle;rounded=0;orthogonalLoop=1;jettySize=auto;html=1;exitX=0.5;exitY=1;exitDx=0;exitDy=0;fillColor=#e1d5e7;strokeColor=#9673A6;endArrow=block;endFill=1;strokeWidth=4;sketch=1;curveFitting=1;jiggle=2;fontFamily=Pacifico;fontSource=https%3A%2F%2Ffonts.googleapis.com%2Fcss%3Ffamily%3DPacifico;curved=1;" parent="1" source="gpbqa65LmEf_NwB6TyDZ-22" edge="1">
          <mxGeometry relative="1" as="geometry">
            <mxPoint x="610" y="450" as="targetPoint" />
            <mxPoint x="600" y="400" as="sourcePoint" />
          </mxGeometry>
        </mxCell>
        <mxCell id="gpbqa65LmEf_NwB6TyDZ-22" value="&lt;font color=&quot;#9673a6&quot;&gt;Bias&lt;/font&gt;" style="text;html=1;align=center;verticalAlign=middle;whiteSpace=wrap;rounded=0;sketch=1;curveFitting=1;jiggle=2;fontFamily=Pacifico;fontSource=https%3A%2F%2Ffonts.googleapis.com%2Fcss%3Ffamily%3DPacifico;" parent="1" vertex="1">
          <mxGeometry x="565" y="380" width="60" height="20" as="geometry" />
        </mxCell>
        <mxCell id="aJA0vTqC9jPphdGELo1B-1" value="&lt;font color=&quot;#d6b656&quot; style=&quot;font-size: 30px;&quot;&gt;\( \blacktriangleright \)&lt;/font&gt;" style="text;html=1;align=center;verticalAlign=middle;whiteSpace=wrap;rounded=0;sketch=1;curveFitting=1;jiggle=2;fontFamily=Pacifico;fontSource=https%3A%2F%2Ffonts.googleapis.com%2Fcss%3Ffamily%3DPacifico;" parent="1" vertex="1">
          <mxGeometry x="423" y="425" width="60" height="60" as="geometry" />
        </mxCell>
      </root>
    </mxGraphModel>
  </diagram>
  <diagram id="PKIJlBQuqZQ_qbm6TV1u" name="ANN">
    <mxGraphModel dx="1434" dy="836" grid="1" gridSize="10" guides="1" tooltips="1" connect="1" arrows="1" fold="1" page="1" pageScale="1" pageWidth="850" pageHeight="1100" math="0" shadow="0">
      <root>
        <mxCell id="0" />
        <mxCell id="1" parent="0" />
        <mxCell id="ACs-hlLUOyP7rcckyD53-1" value="" style="rounded=0;whiteSpace=wrap;html=1;strokeColor=none;sketch=1;curveFitting=1;jiggle=2;" parent="1" vertex="1">
          <mxGeometry x="140" y="180" width="380" height="290" as="geometry" />
        </mxCell>
        <mxCell id="Gax_tU7gUXnnpnAvfep0-1" value="" style="ellipse;whiteSpace=wrap;html=1;aspect=fixed;fontFamily=Lato;fontSource=https://fonts.googleapis.com/css?family=Lato;fillColor=#dae8fc;strokeColor=#6C8EBF;sketch=1;curveFitting=1;jiggle=2;fillStyle=solid;" parent="1" vertex="1">
          <mxGeometry x="160" y="220" width="40" height="40" as="geometry" />
        </mxCell>
        <mxCell id="Gax_tU7gUXnnpnAvfep0-2" value="" style="ellipse;whiteSpace=wrap;html=1;aspect=fixed;fontFamily=Lato;fontSource=https://fonts.googleapis.com/css?family=Lato;fillColor=#dae8fc;strokeColor=#6c8ebf;sketch=1;curveFitting=1;jiggle=2;fillStyle=solid;" parent="1" vertex="1">
          <mxGeometry x="160" y="340" width="40" height="40" as="geometry" />
        </mxCell>
        <mxCell id="Gax_tU7gUXnnpnAvfep0-3" value="" style="ellipse;whiteSpace=wrap;html=1;aspect=fixed;fontFamily=Lato;fontSource=https://fonts.googleapis.com/css?family=Lato;fillColor=#d5e8d4;strokeColor=#82b366;sketch=1;curveFitting=1;jiggle=2;fillStyle=solid;" parent="1" vertex="1">
          <mxGeometry x="260" y="190" width="40" height="40" as="geometry" />
        </mxCell>
        <mxCell id="Gax_tU7gUXnnpnAvfep0-4" value="" style="ellipse;whiteSpace=wrap;html=1;aspect=fixed;fontFamily=Lato;fontSource=https://fonts.googleapis.com/css?family=Lato;fillColor=#d5e8d4;strokeColor=#82b366;sketch=1;curveFitting=1;jiggle=2;fillStyle=solid;" parent="1" vertex="1">
          <mxGeometry x="260" y="250" width="40" height="40" as="geometry" />
        </mxCell>
        <mxCell id="Gax_tU7gUXnnpnAvfep0-5" value="" style="ellipse;whiteSpace=wrap;html=1;aspect=fixed;fontFamily=Lato;fontSource=https://fonts.googleapis.com/css?family=Lato;fillColor=#d5e8d4;strokeColor=#82b366;sketch=1;curveFitting=1;jiggle=2;fillStyle=solid;" parent="1" vertex="1">
          <mxGeometry x="260" y="310" width="40" height="40" as="geometry" />
        </mxCell>
        <mxCell id="Gax_tU7gUXnnpnAvfep0-6" value="" style="ellipse;whiteSpace=wrap;html=1;aspect=fixed;fontFamily=Lato;fontSource=https://fonts.googleapis.com/css?family=Lato;fillColor=#d5e8d4;strokeColor=#82b366;sketch=1;curveFitting=1;jiggle=2;fillStyle=solid;" parent="1" vertex="1">
          <mxGeometry x="260" y="370" width="40" height="40" as="geometry" />
        </mxCell>
        <mxCell id="cvLhB5R0QIwtaayfp8tl-1" value="" style="ellipse;whiteSpace=wrap;html=1;aspect=fixed;fontFamily=Lato;fontSource=https://fonts.googleapis.com/css?family=Lato;fillColor=#d5e8d4;strokeColor=#82b366;sketch=1;curveFitting=1;jiggle=2;fillStyle=solid;" parent="1" vertex="1">
          <mxGeometry x="360" y="190" width="40" height="40" as="geometry" />
        </mxCell>
        <mxCell id="cvLhB5R0QIwtaayfp8tl-2" value="" style="ellipse;whiteSpace=wrap;html=1;aspect=fixed;fontFamily=Lato;fontSource=https://fonts.googleapis.com/css?family=Lato;fillColor=#d5e8d4;strokeColor=#82b366;sketch=1;curveFitting=1;jiggle=2;fillStyle=solid;" parent="1" vertex="1">
          <mxGeometry x="360" y="250" width="40" height="40" as="geometry" />
        </mxCell>
        <mxCell id="cvLhB5R0QIwtaayfp8tl-3" value="" style="ellipse;whiteSpace=wrap;html=1;aspect=fixed;fontFamily=Lato;fontSource=https://fonts.googleapis.com/css?family=Lato;fillColor=#d5e8d4;strokeColor=#82b366;sketch=1;curveFitting=1;jiggle=2;fillStyle=solid;" parent="1" vertex="1">
          <mxGeometry x="360" y="310" width="40" height="40" as="geometry" />
        </mxCell>
        <mxCell id="cvLhB5R0QIwtaayfp8tl-4" value="" style="ellipse;whiteSpace=wrap;html=1;aspect=fixed;fontFamily=Lato;fontSource=https://fonts.googleapis.com/css?family=Lato;fillColor=#d5e8d4;strokeColor=#82B366;sketch=1;curveFitting=1;jiggle=2;fillStyle=solid;" parent="1" vertex="1">
          <mxGeometry x="360" y="370" width="40" height="40" as="geometry" />
        </mxCell>
        <mxCell id="cvLhB5R0QIwtaayfp8tl-5" value="" style="ellipse;whiteSpace=wrap;html=1;aspect=fixed;fontFamily=Lato;fontSource=https://fonts.googleapis.com/css?family=Lato;fillColor=#fff2cc;strokeColor=#d6b656;sketch=1;curveFitting=1;jiggle=2;fillStyle=solid;" parent="1" vertex="1">
          <mxGeometry x="460" y="240" width="40" height="40" as="geometry" />
        </mxCell>
        <mxCell id="cvLhB5R0QIwtaayfp8tl-6" value="" style="ellipse;whiteSpace=wrap;html=1;aspect=fixed;fontFamily=Lato;fontSource=https://fonts.googleapis.com/css?family=Lato;fillColor=#fff2cc;strokeColor=#D6B656;sketch=1;curveFitting=1;jiggle=2;fillStyle=solid;" parent="1" vertex="1">
          <mxGeometry x="460" y="320" width="40" height="40" as="geometry" />
        </mxCell>
        <mxCell id="cvLhB5R0QIwtaayfp8tl-7" value="" style="ellipse;whiteSpace=wrap;html=1;aspect=fixed;fontFamily=Lato;fontSource=https://fonts.googleapis.com/css?family=Lato;fillColor=#dae8fc;strokeColor=#6c8ebf;sketch=1;curveFitting=1;jiggle=2;fillStyle=solid;" parent="1" vertex="1">
          <mxGeometry x="160" y="280" width="40" height="40" as="geometry" />
        </mxCell>
        <mxCell id="cvLhB5R0QIwtaayfp8tl-8" value="" style="endArrow=none;html=1;rounded=0;exitX=1;exitY=0.5;exitDx=0;exitDy=0;entryX=0;entryY=0.5;entryDx=0;entryDy=0;startArrow=none;startFill=0;endFill=0;sketch=1;curveFitting=1;jiggle=2;" parent="1" source="Gax_tU7gUXnnpnAvfep0-1" target="Gax_tU7gUXnnpnAvfep0-3" edge="1">
          <mxGeometry width="50" height="50" relative="1" as="geometry">
            <mxPoint x="400" y="320" as="sourcePoint" />
            <mxPoint x="450" y="270" as="targetPoint" />
          </mxGeometry>
        </mxCell>
        <mxCell id="cvLhB5R0QIwtaayfp8tl-9" value="" style="endArrow=none;html=1;rounded=0;exitX=1;exitY=0.5;exitDx=0;exitDy=0;entryX=0;entryY=0.5;entryDx=0;entryDy=0;startArrow=none;startFill=0;endFill=0;sketch=1;curveFitting=1;jiggle=2;" parent="1" source="Gax_tU7gUXnnpnAvfep0-1" target="Gax_tU7gUXnnpnAvfep0-4" edge="1">
          <mxGeometry width="50" height="50" relative="1" as="geometry">
            <mxPoint x="210" y="250" as="sourcePoint" />
            <mxPoint x="270" y="220" as="targetPoint" />
          </mxGeometry>
        </mxCell>
        <mxCell id="cvLhB5R0QIwtaayfp8tl-12" value="" style="endArrow=none;html=1;rounded=0;exitX=1;exitY=0.5;exitDx=0;exitDy=0;entryX=0;entryY=0.5;entryDx=0;entryDy=0;startArrow=none;startFill=0;endFill=0;sketch=1;curveFitting=1;jiggle=2;" parent="1" source="Gax_tU7gUXnnpnAvfep0-1" target="Gax_tU7gUXnnpnAvfep0-5" edge="1">
          <mxGeometry width="50" height="50" relative="1" as="geometry">
            <mxPoint x="210" y="250" as="sourcePoint" />
            <mxPoint x="270" y="280" as="targetPoint" />
          </mxGeometry>
        </mxCell>
        <mxCell id="cvLhB5R0QIwtaayfp8tl-13" value="" style="endArrow=none;html=1;rounded=0;exitX=1;exitY=0.5;exitDx=0;exitDy=0;entryX=0;entryY=0.5;entryDx=0;entryDy=0;startArrow=none;startFill=0;endFill=0;sketch=1;curveFitting=1;jiggle=2;" parent="1" source="Gax_tU7gUXnnpnAvfep0-1" target="Gax_tU7gUXnnpnAvfep0-6" edge="1">
          <mxGeometry width="50" height="50" relative="1" as="geometry">
            <mxPoint x="210" y="250" as="sourcePoint" />
            <mxPoint x="270" y="340" as="targetPoint" />
          </mxGeometry>
        </mxCell>
        <mxCell id="cvLhB5R0QIwtaayfp8tl-15" value="" style="endArrow=none;html=1;rounded=0;exitX=1;exitY=0.5;exitDx=0;exitDy=0;entryX=0;entryY=0.5;entryDx=0;entryDy=0;startArrow=none;startFill=0;endFill=0;sketch=1;curveFitting=1;jiggle=2;" parent="1" source="cvLhB5R0QIwtaayfp8tl-7" target="Gax_tU7gUXnnpnAvfep0-3" edge="1">
          <mxGeometry width="50" height="50" relative="1" as="geometry">
            <mxPoint x="210" y="250" as="sourcePoint" />
            <mxPoint x="270" y="220" as="targetPoint" />
          </mxGeometry>
        </mxCell>
        <mxCell id="cvLhB5R0QIwtaayfp8tl-16" value="" style="endArrow=none;html=1;rounded=0;exitX=1;exitY=0.5;exitDx=0;exitDy=0;entryX=0;entryY=0.5;entryDx=0;entryDy=0;startArrow=none;startFill=0;endFill=0;sketch=1;curveFitting=1;jiggle=2;" parent="1" source="Gax_tU7gUXnnpnAvfep0-2" target="Gax_tU7gUXnnpnAvfep0-3" edge="1">
          <mxGeometry width="50" height="50" relative="1" as="geometry">
            <mxPoint x="210" y="310" as="sourcePoint" />
            <mxPoint x="270" y="220" as="targetPoint" />
          </mxGeometry>
        </mxCell>
        <mxCell id="cvLhB5R0QIwtaayfp8tl-17" value="" style="endArrow=none;html=1;rounded=0;exitX=1;exitY=0.5;exitDx=0;exitDy=0;entryX=0;entryY=0.5;entryDx=0;entryDy=0;startArrow=none;startFill=0;endFill=0;sketch=1;curveFitting=1;jiggle=2;" parent="1" source="cvLhB5R0QIwtaayfp8tl-7" target="Gax_tU7gUXnnpnAvfep0-4" edge="1">
          <mxGeometry width="50" height="50" relative="1" as="geometry">
            <mxPoint x="210" y="250" as="sourcePoint" />
            <mxPoint x="270" y="280" as="targetPoint" />
          </mxGeometry>
        </mxCell>
        <mxCell id="cvLhB5R0QIwtaayfp8tl-18" value="" style="endArrow=none;html=1;rounded=0;exitX=1;exitY=0.5;exitDx=0;exitDy=0;entryX=0;entryY=0.5;entryDx=0;entryDy=0;startArrow=none;startFill=0;endFill=0;sketch=1;curveFitting=1;jiggle=2;" parent="1" source="Gax_tU7gUXnnpnAvfep0-2" target="Gax_tU7gUXnnpnAvfep0-4" edge="1">
          <mxGeometry width="50" height="50" relative="1" as="geometry">
            <mxPoint x="210" y="310" as="sourcePoint" />
            <mxPoint x="270" y="280" as="targetPoint" />
          </mxGeometry>
        </mxCell>
        <mxCell id="cvLhB5R0QIwtaayfp8tl-19" value="" style="endArrow=none;html=1;rounded=0;exitX=1;exitY=0.5;exitDx=0;exitDy=0;entryX=0;entryY=0.5;entryDx=0;entryDy=0;startArrow=none;startFill=0;endFill=0;sketch=1;curveFitting=1;jiggle=2;" parent="1" source="cvLhB5R0QIwtaayfp8tl-7" target="Gax_tU7gUXnnpnAvfep0-5" edge="1">
          <mxGeometry width="50" height="50" relative="1" as="geometry">
            <mxPoint x="210" y="250" as="sourcePoint" />
            <mxPoint x="270" y="340" as="targetPoint" />
          </mxGeometry>
        </mxCell>
        <mxCell id="cvLhB5R0QIwtaayfp8tl-20" value="" style="endArrow=none;html=1;rounded=0;exitX=1;exitY=0.5;exitDx=0;exitDy=0;entryX=0;entryY=0.5;entryDx=0;entryDy=0;startArrow=none;startFill=0;endFill=0;sketch=1;curveFitting=1;jiggle=2;" parent="1" source="Gax_tU7gUXnnpnAvfep0-2" target="Gax_tU7gUXnnpnAvfep0-5" edge="1">
          <mxGeometry width="50" height="50" relative="1" as="geometry">
            <mxPoint x="210" y="310" as="sourcePoint" />
            <mxPoint x="270" y="340" as="targetPoint" />
          </mxGeometry>
        </mxCell>
        <mxCell id="cvLhB5R0QIwtaayfp8tl-21" value="" style="endArrow=none;html=1;rounded=0;exitX=1;exitY=0.5;exitDx=0;exitDy=0;entryX=0;entryY=0.5;entryDx=0;entryDy=0;startArrow=none;startFill=0;endFill=0;sketch=1;curveFitting=1;jiggle=2;" parent="1" source="Gax_tU7gUXnnpnAvfep0-2" target="Gax_tU7gUXnnpnAvfep0-6" edge="1">
          <mxGeometry width="50" height="50" relative="1" as="geometry">
            <mxPoint x="210" y="250" as="sourcePoint" />
            <mxPoint x="271" y="396" as="targetPoint" />
          </mxGeometry>
        </mxCell>
        <mxCell id="cvLhB5R0QIwtaayfp8tl-22" value="" style="endArrow=none;html=1;rounded=0;exitX=1;exitY=0.5;exitDx=0;exitDy=0;entryX=0;entryY=0.5;entryDx=0;entryDy=0;startArrow=none;startFill=0;endFill=0;sketch=1;curveFitting=1;jiggle=2;" parent="1" source="cvLhB5R0QIwtaayfp8tl-7" target="Gax_tU7gUXnnpnAvfep0-6" edge="1">
          <mxGeometry width="50" height="50" relative="1" as="geometry">
            <mxPoint x="210" y="370" as="sourcePoint" />
            <mxPoint x="272" y="397" as="targetPoint" />
          </mxGeometry>
        </mxCell>
        <mxCell id="cvLhB5R0QIwtaayfp8tl-23" style="rounded=0;orthogonalLoop=1;jettySize=auto;html=1;exitX=1;exitY=0.5;exitDx=0;exitDy=0;entryX=0;entryY=0.5;entryDx=0;entryDy=0;endArrow=none;endFill=0;startArrow=none;startFill=0;sketch=1;curveFitting=1;jiggle=2;" parent="1" source="Gax_tU7gUXnnpnAvfep0-3" target="cvLhB5R0QIwtaayfp8tl-1" edge="1">
          <mxGeometry relative="1" as="geometry" />
        </mxCell>
        <mxCell id="cvLhB5R0QIwtaayfp8tl-27" style="rounded=0;orthogonalLoop=1;jettySize=auto;html=1;exitX=1;exitY=0.5;exitDx=0;exitDy=0;entryX=0;entryY=0.5;entryDx=0;entryDy=0;endArrow=none;endFill=0;startArrow=none;startFill=0;sketch=1;curveFitting=1;jiggle=2;" parent="1" source="Gax_tU7gUXnnpnAvfep0-3" target="cvLhB5R0QIwtaayfp8tl-2" edge="1">
          <mxGeometry relative="1" as="geometry" />
        </mxCell>
        <mxCell id="cvLhB5R0QIwtaayfp8tl-29" style="rounded=0;orthogonalLoop=1;jettySize=auto;html=1;exitX=1;exitY=0.5;exitDx=0;exitDy=0;entryX=0;entryY=0.5;entryDx=0;entryDy=0;endArrow=none;endFill=0;startArrow=none;startFill=0;sketch=1;curveFitting=1;jiggle=2;" parent="1" source="Gax_tU7gUXnnpnAvfep0-3" target="cvLhB5R0QIwtaayfp8tl-4" edge="1">
          <mxGeometry relative="1" as="geometry" />
        </mxCell>
        <mxCell id="cvLhB5R0QIwtaayfp8tl-24" value="" style="rounded=0;orthogonalLoop=1;jettySize=auto;html=1;endArrow=none;endFill=0;startArrow=none;startFill=0;sketch=1;curveFitting=1;jiggle=2;" parent="1" source="Gax_tU7gUXnnpnAvfep0-4" target="cvLhB5R0QIwtaayfp8tl-2" edge="1">
          <mxGeometry relative="1" as="geometry" />
        </mxCell>
        <mxCell id="cvLhB5R0QIwtaayfp8tl-30" style="rounded=0;orthogonalLoop=1;jettySize=auto;html=1;exitX=1;exitY=0.5;exitDx=0;exitDy=0;entryX=0;entryY=0.5;entryDx=0;entryDy=0;endArrow=none;endFill=0;startArrow=none;startFill=0;sketch=1;curveFitting=1;jiggle=2;" parent="1" source="Gax_tU7gUXnnpnAvfep0-4" target="cvLhB5R0QIwtaayfp8tl-1" edge="1">
          <mxGeometry relative="1" as="geometry" />
        </mxCell>
        <mxCell id="cvLhB5R0QIwtaayfp8tl-31" style="rounded=0;orthogonalLoop=1;jettySize=auto;html=1;exitX=1;exitY=0.5;exitDx=0;exitDy=0;entryX=0;entryY=0.5;entryDx=0;entryDy=0;endArrow=none;endFill=0;startArrow=none;startFill=0;sketch=1;curveFitting=1;jiggle=2;" parent="1" source="Gax_tU7gUXnnpnAvfep0-4" target="cvLhB5R0QIwtaayfp8tl-3" edge="1">
          <mxGeometry relative="1" as="geometry" />
        </mxCell>
        <mxCell id="cvLhB5R0QIwtaayfp8tl-32" style="rounded=0;orthogonalLoop=1;jettySize=auto;html=1;exitX=1;exitY=0.5;exitDx=0;exitDy=0;entryX=0;entryY=0.5;entryDx=0;entryDy=0;endArrow=none;endFill=0;startArrow=none;startFill=0;sketch=1;curveFitting=1;jiggle=2;" parent="1" source="Gax_tU7gUXnnpnAvfep0-4" target="cvLhB5R0QIwtaayfp8tl-4" edge="1">
          <mxGeometry relative="1" as="geometry" />
        </mxCell>
        <mxCell id="cvLhB5R0QIwtaayfp8tl-25" value="" style="rounded=0;orthogonalLoop=1;jettySize=auto;html=1;endArrow=none;endFill=0;startArrow=none;startFill=0;sketch=1;curveFitting=1;jiggle=2;" parent="1" source="Gax_tU7gUXnnpnAvfep0-5" target="cvLhB5R0QIwtaayfp8tl-3" edge="1">
          <mxGeometry relative="1" as="geometry" />
        </mxCell>
        <mxCell id="cvLhB5R0QIwtaayfp8tl-33" style="rounded=0;orthogonalLoop=1;jettySize=auto;html=1;exitX=1;exitY=0.5;exitDx=0;exitDy=0;entryX=0;entryY=0.5;entryDx=0;entryDy=0;endArrow=none;endFill=0;startArrow=none;startFill=0;sketch=1;curveFitting=1;jiggle=2;" parent="1" source="Gax_tU7gUXnnpnAvfep0-5" target="cvLhB5R0QIwtaayfp8tl-1" edge="1">
          <mxGeometry relative="1" as="geometry" />
        </mxCell>
        <mxCell id="cvLhB5R0QIwtaayfp8tl-34" style="rounded=0;orthogonalLoop=1;jettySize=auto;html=1;exitX=1;exitY=0.5;exitDx=0;exitDy=0;entryX=0;entryY=0.5;entryDx=0;entryDy=0;endArrow=none;endFill=0;startArrow=none;startFill=0;sketch=1;curveFitting=1;jiggle=2;" parent="1" source="Gax_tU7gUXnnpnAvfep0-5" target="cvLhB5R0QIwtaayfp8tl-2" edge="1">
          <mxGeometry relative="1" as="geometry" />
        </mxCell>
        <mxCell id="cvLhB5R0QIwtaayfp8tl-35" style="rounded=0;orthogonalLoop=1;jettySize=auto;html=1;exitX=1;exitY=0.5;exitDx=0;exitDy=0;entryX=0;entryY=0.5;entryDx=0;entryDy=0;endArrow=none;endFill=0;startArrow=none;startFill=0;sketch=1;curveFitting=1;jiggle=2;" parent="1" source="Gax_tU7gUXnnpnAvfep0-5" target="cvLhB5R0QIwtaayfp8tl-4" edge="1">
          <mxGeometry relative="1" as="geometry" />
        </mxCell>
        <mxCell id="cvLhB5R0QIwtaayfp8tl-26" value="" style="rounded=0;orthogonalLoop=1;jettySize=auto;html=1;endArrow=none;endFill=0;startArrow=none;startFill=0;sketch=1;curveFitting=1;jiggle=2;" parent="1" source="Gax_tU7gUXnnpnAvfep0-6" target="cvLhB5R0QIwtaayfp8tl-4" edge="1">
          <mxGeometry relative="1" as="geometry" />
        </mxCell>
        <mxCell id="cvLhB5R0QIwtaayfp8tl-36" style="rounded=0;orthogonalLoop=1;jettySize=auto;html=1;exitX=1;exitY=0.5;exitDx=0;exitDy=0;entryX=0;entryY=0.5;entryDx=0;entryDy=0;endArrow=none;endFill=0;startArrow=none;startFill=0;sketch=1;curveFitting=1;jiggle=2;" parent="1" source="Gax_tU7gUXnnpnAvfep0-6" target="cvLhB5R0QIwtaayfp8tl-1" edge="1">
          <mxGeometry relative="1" as="geometry" />
        </mxCell>
        <mxCell id="cvLhB5R0QIwtaayfp8tl-37" style="rounded=0;orthogonalLoop=1;jettySize=auto;html=1;exitX=1;exitY=0.5;exitDx=0;exitDy=0;entryX=0;entryY=0.5;entryDx=0;entryDy=0;endArrow=none;endFill=0;startArrow=none;startFill=0;sketch=1;curveFitting=1;jiggle=2;" parent="1" source="Gax_tU7gUXnnpnAvfep0-6" target="cvLhB5R0QIwtaayfp8tl-2" edge="1">
          <mxGeometry relative="1" as="geometry" />
        </mxCell>
        <mxCell id="cvLhB5R0QIwtaayfp8tl-38" style="rounded=0;orthogonalLoop=1;jettySize=auto;html=1;exitX=1;exitY=0.5;exitDx=0;exitDy=0;entryX=0;entryY=0.5;entryDx=0;entryDy=0;endArrow=none;endFill=0;startArrow=none;startFill=0;sketch=1;curveFitting=1;jiggle=2;" parent="1" source="Gax_tU7gUXnnpnAvfep0-6" target="cvLhB5R0QIwtaayfp8tl-3" edge="1">
          <mxGeometry relative="1" as="geometry" />
        </mxCell>
        <mxCell id="cvLhB5R0QIwtaayfp8tl-28" style="rounded=0;orthogonalLoop=1;jettySize=auto;html=1;exitX=1;exitY=0.5;exitDx=0;exitDy=0;entryX=0;entryY=0.5;entryDx=0;entryDy=0;endArrow=none;endFill=0;startArrow=none;startFill=0;sketch=1;curveFitting=1;jiggle=2;" parent="1" source="Gax_tU7gUXnnpnAvfep0-3" target="cvLhB5R0QIwtaayfp8tl-3" edge="1">
          <mxGeometry relative="1" as="geometry" />
        </mxCell>
        <mxCell id="cvLhB5R0QIwtaayfp8tl-39" style="rounded=0;orthogonalLoop=1;jettySize=auto;html=1;exitX=1;exitY=0.5;exitDx=0;exitDy=0;entryX=0;entryY=0.5;entryDx=0;entryDy=0;endArrow=none;endFill=0;startArrow=none;startFill=0;sketch=1;curveFitting=1;jiggle=2;" parent="1" source="cvLhB5R0QIwtaayfp8tl-1" target="cvLhB5R0QIwtaayfp8tl-5" edge="1">
          <mxGeometry relative="1" as="geometry" />
        </mxCell>
        <mxCell id="cvLhB5R0QIwtaayfp8tl-43" style="rounded=0;orthogonalLoop=1;jettySize=auto;html=1;exitX=1;exitY=0.5;exitDx=0;exitDy=0;entryX=0;entryY=0.5;entryDx=0;entryDy=0;endArrow=none;endFill=0;startArrow=none;startFill=0;sketch=1;curveFitting=1;jiggle=2;" parent="1" source="cvLhB5R0QIwtaayfp8tl-1" target="cvLhB5R0QIwtaayfp8tl-6" edge="1">
          <mxGeometry relative="1" as="geometry" />
        </mxCell>
        <mxCell id="cvLhB5R0QIwtaayfp8tl-40" style="rounded=0;orthogonalLoop=1;jettySize=auto;html=1;exitX=1;exitY=0.5;exitDx=0;exitDy=0;entryX=0;entryY=0.5;entryDx=0;entryDy=0;endArrow=none;endFill=0;startArrow=none;startFill=0;sketch=1;curveFitting=1;jiggle=2;" parent="1" source="cvLhB5R0QIwtaayfp8tl-2" target="cvLhB5R0QIwtaayfp8tl-5" edge="1">
          <mxGeometry relative="1" as="geometry" />
        </mxCell>
        <mxCell id="cvLhB5R0QIwtaayfp8tl-44" style="rounded=0;orthogonalLoop=1;jettySize=auto;html=1;exitX=1;exitY=0.5;exitDx=0;exitDy=0;entryX=0;entryY=0.5;entryDx=0;entryDy=0;endArrow=none;endFill=0;startArrow=none;startFill=0;sketch=1;curveFitting=1;jiggle=2;" parent="1" source="cvLhB5R0QIwtaayfp8tl-2" target="cvLhB5R0QIwtaayfp8tl-6" edge="1">
          <mxGeometry relative="1" as="geometry" />
        </mxCell>
        <mxCell id="cvLhB5R0QIwtaayfp8tl-41" style="rounded=0;orthogonalLoop=1;jettySize=auto;html=1;exitX=1;exitY=0.5;exitDx=0;exitDy=0;entryX=0;entryY=0.5;entryDx=0;entryDy=0;endArrow=none;endFill=0;startArrow=none;startFill=0;sketch=1;curveFitting=1;jiggle=2;" parent="1" source="cvLhB5R0QIwtaayfp8tl-3" target="cvLhB5R0QIwtaayfp8tl-5" edge="1">
          <mxGeometry relative="1" as="geometry" />
        </mxCell>
        <mxCell id="cvLhB5R0QIwtaayfp8tl-45" style="rounded=0;orthogonalLoop=1;jettySize=auto;html=1;exitX=1;exitY=0.5;exitDx=0;exitDy=0;entryX=0;entryY=0.5;entryDx=0;entryDy=0;endArrow=none;endFill=0;startArrow=none;startFill=0;sketch=1;curveFitting=1;jiggle=2;" parent="1" source="cvLhB5R0QIwtaayfp8tl-3" target="cvLhB5R0QIwtaayfp8tl-6" edge="1">
          <mxGeometry relative="1" as="geometry" />
        </mxCell>
        <mxCell id="cvLhB5R0QIwtaayfp8tl-42" style="rounded=0;orthogonalLoop=1;jettySize=auto;html=1;exitX=1;exitY=0.5;exitDx=0;exitDy=0;entryX=0;entryY=0.5;entryDx=0;entryDy=0;endArrow=none;endFill=0;startArrow=none;startFill=0;sketch=1;curveFitting=1;jiggle=2;" parent="1" source="cvLhB5R0QIwtaayfp8tl-4" target="cvLhB5R0QIwtaayfp8tl-5" edge="1">
          <mxGeometry relative="1" as="geometry" />
        </mxCell>
        <mxCell id="cvLhB5R0QIwtaayfp8tl-46" style="rounded=0;orthogonalLoop=1;jettySize=auto;html=1;exitX=1;exitY=0.5;exitDx=0;exitDy=0;entryX=0;entryY=0.5;entryDx=0;entryDy=0;endArrow=none;endFill=0;startArrow=none;startFill=0;sketch=1;curveFitting=1;jiggle=2;" parent="1" source="cvLhB5R0QIwtaayfp8tl-4" target="cvLhB5R0QIwtaayfp8tl-6" edge="1">
          <mxGeometry relative="1" as="geometry" />
        </mxCell>
        <mxCell id="cvLhB5R0QIwtaayfp8tl-47" value="&lt;font color=&quot;#6c8ebf&quot;&gt;Input&lt;/font&gt;&lt;div&gt;&lt;font color=&quot;#6c8ebf&quot;&gt;Layer&lt;/font&gt;&lt;/div&gt;" style="text;html=1;align=center;verticalAlign=middle;whiteSpace=wrap;rounded=0;fillColor=#dae8fc;strokeColor=#6c8ebf;sketch=1;curveFitting=1;jiggle=2;fontFamily=Pacifico;fontSource=https%3A%2F%2Ffonts.googleapis.com%2Fcss%3Ffamily%3DPacifico;fillStyle=solid;" parent="1" vertex="1">
          <mxGeometry x="150" y="420" width="60" height="40" as="geometry" />
        </mxCell>
        <mxCell id="cvLhB5R0QIwtaayfp8tl-48" value="&lt;font color=&quot;#82b366&quot;&gt;Hidden&lt;/font&gt;&lt;div&gt;&lt;font color=&quot;#82b366&quot;&gt;Layers&lt;/font&gt;&lt;/div&gt;" style="text;html=1;align=center;verticalAlign=middle;whiteSpace=wrap;rounded=0;fillColor=#d5e8d4;strokeColor=#82b366;sketch=1;curveFitting=1;jiggle=2;fontFamily=Pacifico;fontSource=https%3A%2F%2Ffonts.googleapis.com%2Fcss%3Ffamily%3DPacifico;fillStyle=solid;" parent="1" vertex="1">
          <mxGeometry x="250" y="420" width="160" height="40" as="geometry" />
        </mxCell>
        <mxCell id="cvLhB5R0QIwtaayfp8tl-49" value="&lt;font color=&quot;#d6b656&quot;&gt;Output&lt;/font&gt;&lt;div&gt;&lt;font color=&quot;#d6b656&quot;&gt;Layer&lt;/font&gt;&lt;/div&gt;" style="text;html=1;align=center;verticalAlign=middle;whiteSpace=wrap;rounded=0;fillColor=#fff2cc;strokeColor=#d6b656;sketch=1;curveFitting=1;jiggle=2;fontFamily=Pacifico;fontSource=https%3A%2F%2Ffonts.googleapis.com%2Fcss%3Ffamily%3DPacifico;fillStyle=solid;" parent="1" vertex="1">
          <mxGeometry x="450" y="420" width="60" height="40" as="geometry" />
        </mxCell>
      </root>
    </mxGraphModel>
  </diagram>
  <diagram id="_wn7x9WnQ1KAEfJS5CZ9" name="Backpropagation">
    <mxGraphModel dx="1912" dy="1115" grid="1" gridSize="10" guides="1" tooltips="1" connect="1" arrows="1" fold="1" page="1" pageScale="1" pageWidth="1600" pageHeight="900" math="1" shadow="0">
      <root>
        <mxCell id="0" />
        <mxCell id="1" parent="0" />
        <mxCell id="EgVaRRaSBaKRcsh8KBnX-41" value="" style="rounded=0;whiteSpace=wrap;html=1;strokeColor=none;" vertex="1" parent="1">
          <mxGeometry x="160" width="1840" height="720" as="geometry" />
        </mxCell>
        <mxCell id="EgVaRRaSBaKRcsh8KBnX-40" value="" style="rounded=1;whiteSpace=wrap;html=1;fillColor=#b0e3e6;strokeColor=#0e8088;sketch=1;curveFitting=1;jiggle=2;arcSize=25;fillStyle=hachure;" vertex="1" parent="1">
          <mxGeometry x="1750" y="260" width="220" height="260" as="geometry" />
        </mxCell>
        <mxCell id="EgVaRRaSBaKRcsh8KBnX-39" value="" style="rounded=1;whiteSpace=wrap;html=1;fillColor=#d0cee2;strokeColor=#56517e;sketch=1;curveFitting=1;jiggle=2;arcSize=25;fillStyle=hachure;" vertex="1" parent="1">
          <mxGeometry x="1480" y="260" width="250" height="220" as="geometry" />
        </mxCell>
        <mxCell id="EgVaRRaSBaKRcsh8KBnX-38" value="" style="rounded=1;whiteSpace=wrap;html=1;fillColor=#bac8d3;strokeColor=#23445d;sketch=1;curveFitting=1;jiggle=2;arcSize=25;fillStyle=hachure;" vertex="1" parent="1">
          <mxGeometry x="1150" y="260" width="300" height="220" as="geometry" />
        </mxCell>
        <mxCell id="vCNrHFBAJ40JcYc2TS8--3" style="edgeStyle=orthogonalEdgeStyle;rounded=0;orthogonalLoop=1;jettySize=auto;html=1;exitX=1;exitY=0.5;exitDx=0;exitDy=0;strokeWidth=5;sketch=1;curveFitting=1;jiggle=2;fillColor=#dae8fc;strokeColor=#6c8ebf;" edge="1" parent="1" source="vCNrHFBAJ40JcYc2TS8--1">
          <mxGeometry relative="1" as="geometry">
            <mxPoint x="1040" y="360" as="targetPoint" />
          </mxGeometry>
        </mxCell>
        <mxCell id="vCNrHFBAJ40JcYc2TS8--1" value="&lt;font face=&quot;Pacifico&quot;&gt;&lt;span style=&quot;font-size: 110px;&quot;&gt;\( f \)&lt;/span&gt;&lt;/font&gt;" style="ellipse;whiteSpace=wrap;html=1;aspect=fixed;strokeWidth=6;fillColor=#d5e8d4;strokeColor=#82B366;sketch=1;curveFitting=1;jiggle=2;fillStyle=solid;fontColor=#82B366;" vertex="1" parent="1">
          <mxGeometry x="520" y="200" width="320" height="320" as="geometry" />
        </mxCell>
        <mxCell id="vCNrHFBAJ40JcYc2TS8--4" style="rounded=0;orthogonalLoop=1;jettySize=auto;html=1;strokeWidth=5;entryX=0;entryY=0;entryDx=0;entryDy=0;sketch=1;curveFitting=1;jiggle=2;fillColor=#dae8fc;strokeColor=#6C8EBF;" edge="1" parent="1" target="vCNrHFBAJ40JcYc2TS8--1">
          <mxGeometry relative="1" as="geometry">
            <mxPoint x="320" y="160" as="sourcePoint" />
            <mxPoint x="490" y="270" as="targetPoint" />
          </mxGeometry>
        </mxCell>
        <mxCell id="vCNrHFBAJ40JcYc2TS8--5" style="rounded=0;orthogonalLoop=1;jettySize=auto;html=1;strokeWidth=5;entryX=0;entryY=1;entryDx=0;entryDy=0;sketch=1;curveFitting=1;jiggle=2;fillColor=#dae8fc;strokeColor=#6c8ebf;" edge="1" parent="1" target="vCNrHFBAJ40JcYc2TS8--1">
          <mxGeometry relative="1" as="geometry">
            <mxPoint x="320" y="560" as="sourcePoint" />
            <mxPoint x="577" y="257" as="targetPoint" />
          </mxGeometry>
        </mxCell>
        <mxCell id="EgVaRRaSBaKRcsh8KBnX-1" value="&lt;font style=&quot;font-size: 72px;&quot; face=&quot;Pacifico&quot;&gt;x&lt;/font&gt;" style="text;html=1;align=center;verticalAlign=middle;whiteSpace=wrap;rounded=0;sketch=1;curveFitting=1;jiggle=2;fontColor=#6C8EBF;" vertex="1" parent="1">
          <mxGeometry x="240" y="80" width="80" height="80" as="geometry" />
        </mxCell>
        <mxCell id="EgVaRRaSBaKRcsh8KBnX-3" value="&lt;font face=&quot;Pacifico&quot; style=&quot;font-size: 72px;&quot;&gt;y&lt;/font&gt;" style="text;html=1;align=center;verticalAlign=middle;whiteSpace=wrap;rounded=0;sketch=1;curveFitting=1;jiggle=2;fontColor=#6C8EBF;" vertex="1" parent="1">
          <mxGeometry x="240" y="520" width="80" height="80" as="geometry" />
        </mxCell>
        <mxCell id="EgVaRRaSBaKRcsh8KBnX-4" value="&lt;font face=&quot;Pacifico&quot; style=&quot;font-size: 72px;&quot;&gt;z&lt;/font&gt;" style="text;html=1;align=center;verticalAlign=middle;whiteSpace=wrap;rounded=0;sketch=1;curveFitting=1;jiggle=2;fontColor=#6C8EBF;" vertex="1" parent="1">
          <mxGeometry x="1040" y="310" width="80" height="80" as="geometry" />
        </mxCell>
        <mxCell id="EgVaRRaSBaKRcsh8KBnX-5" style="edgeStyle=orthogonalEdgeStyle;rounded=0;orthogonalLoop=1;jettySize=auto;html=1;exitX=1;exitY=0.5;exitDx=0;exitDy=0;strokeWidth=5;sketch=1;curveFitting=1;jiggle=2;startArrow=classic;startFill=1;endArrow=none;endFill=0;fillColor=#f8cecc;strokeColor=#B85450;" edge="1" parent="1">
          <mxGeometry relative="1" as="geometry">
            <mxPoint x="840" y="400" as="sourcePoint" />
            <mxPoint x="1040" y="400" as="targetPoint" />
          </mxGeometry>
        </mxCell>
        <mxCell id="EgVaRRaSBaKRcsh8KBnX-7" value="&lt;font style=&quot;font-size: 40px;&quot;&gt;\( \frac{\partial \mathcal{L}}{dz} \)&lt;/font&gt;" style="text;html=1;align=center;verticalAlign=middle;whiteSpace=wrap;rounded=0;fillColor=none;strokeColor=none;fontColor=#B85450;" vertex="1" parent="1">
          <mxGeometry x="900" y="400" width="80" height="80" as="geometry" />
        </mxCell>
        <mxCell id="EgVaRRaSBaKRcsh8KBnX-8" value="&lt;font style=&quot;font-size: 40px;&quot;&gt;\( \frac{\partial z}{dx} \)&lt;/font&gt;" style="text;html=1;align=center;verticalAlign=middle;whiteSpace=wrap;rounded=0;fillColor=none;strokeColor=none;fontColor=#B85450;" vertex="1" parent="1">
          <mxGeometry x="560" y="240" width="80" height="80" as="geometry" />
        </mxCell>
        <mxCell id="EgVaRRaSBaKRcsh8KBnX-9" value="&lt;font style=&quot;font-size: 40px;&quot;&gt;\( \frac{\partial z}{dy} \)&lt;/font&gt;" style="text;html=1;align=center;verticalAlign=middle;whiteSpace=wrap;rounded=0;fillColor=none;strokeColor=none;fontColor=#B85450;" vertex="1" parent="1">
          <mxGeometry x="560" y="390" width="80" height="80" as="geometry" />
        </mxCell>
        <mxCell id="EgVaRRaSBaKRcsh8KBnX-10" style="rounded=0;orthogonalLoop=1;jettySize=auto;html=1;strokeWidth=5;sketch=1;curveFitting=1;jiggle=2;startArrow=classic;startFill=1;endArrow=none;endFill=0;fillColor=#f8cecc;strokeColor=#B85450;" edge="1" parent="1">
          <mxGeometry relative="1" as="geometry">
            <mxPoint x="280" y="200" as="sourcePoint" />
            <mxPoint x="540" y="279.5" as="targetPoint" />
          </mxGeometry>
        </mxCell>
        <mxCell id="EgVaRRaSBaKRcsh8KBnX-11" value="&lt;font style=&quot;font-size: 40px;&quot;&gt;\( \frac{\partial \mathcal{L}}{dx} = \frac{\partial \mathcal{L}}{dz} \frac{\partial z}{dx}&amp;nbsp;\)&lt;/font&gt;" style="text;html=1;align=center;verticalAlign=middle;whiteSpace=wrap;rounded=0;fillColor=none;strokeColor=none;fontColor=#B85450;rotation=17;" vertex="1" parent="1">
          <mxGeometry x="280" y="240" width="240" height="80" as="geometry" />
        </mxCell>
        <mxCell id="EgVaRRaSBaKRcsh8KBnX-12" style="rounded=0;orthogonalLoop=1;jettySize=auto;html=1;strokeWidth=5;sketch=1;curveFitting=1;jiggle=2;startArrow=classic;startFill=1;endArrow=none;endFill=0;fillColor=#f8cecc;strokeColor=#B85450;exitX=0.525;exitY=-0.087;exitDx=0;exitDy=0;exitPerimeter=0;entryX=0.046;entryY=0.703;entryDx=0;entryDy=0;entryPerimeter=0;" edge="1" parent="1" source="EgVaRRaSBaKRcsh8KBnX-3" target="vCNrHFBAJ40JcYc2TS8--1">
          <mxGeometry relative="1" as="geometry">
            <mxPoint x="290" y="210" as="sourcePoint" />
            <mxPoint x="550" y="289.5" as="targetPoint" />
          </mxGeometry>
        </mxCell>
        <mxCell id="EgVaRRaSBaKRcsh8KBnX-15" value="&lt;font style=&quot;font-size: 40px;&quot;&gt;\( \frac{\partial \mathcal{L}}{dy} = \frac{\partial \mathcal{L}}{dz} \frac{\partial z}{dy}&amp;nbsp;\)&lt;/font&gt;" style="text;html=1;align=center;verticalAlign=middle;whiteSpace=wrap;rounded=0;fillColor=none;strokeColor=none;fontColor=#B85450;rotation=341;" vertex="1" parent="1">
          <mxGeometry x="280" y="390" width="240" height="80" as="geometry" />
        </mxCell>
        <mxCell id="EgVaRRaSBaKRcsh8KBnX-16" style="rounded=0;orthogonalLoop=1;jettySize=auto;html=1;strokeWidth=5;sketch=1;curveFitting=1;jiggle=2;fillColor=#dae8fc;strokeColor=#6C8EBF;" edge="1" parent="1">
          <mxGeometry relative="1" as="geometry">
            <mxPoint x="440" y="80" as="sourcePoint" />
            <mxPoint x="880" y="80" as="targetPoint" />
          </mxGeometry>
        </mxCell>
        <mxCell id="EgVaRRaSBaKRcsh8KBnX-17" value="Forward Propagation" style="text;html=1;align=center;verticalAlign=middle;whiteSpace=wrap;rounded=0;fontFamily=Pacifico;fontSource=https%3A%2F%2Ffonts.googleapis.com%2Fcss%3Ffamily%3DPacifico;fontColor=#6C8EBF;fontSize=36;" vertex="1" parent="1">
          <mxGeometry x="440" y="20" width="440" height="40" as="geometry" />
        </mxCell>
        <mxCell id="EgVaRRaSBaKRcsh8KBnX-18" style="rounded=0;orthogonalLoop=1;jettySize=auto;html=1;strokeWidth=5;sketch=1;curveFitting=1;jiggle=2;fillColor=#f8cecc;strokeColor=#B85450;startArrow=classic;startFill=1;endArrow=none;endFill=0;" edge="1" parent="1">
          <mxGeometry relative="1" as="geometry">
            <mxPoint x="480" y="640" as="sourcePoint" />
            <mxPoint x="920" y="640" as="targetPoint" />
          </mxGeometry>
        </mxCell>
        <mxCell id="EgVaRRaSBaKRcsh8KBnX-19" value="&lt;font style=&quot;font-size: 24px;&quot;&gt;Incoming Gradients&lt;/font&gt;" style="text;html=1;align=center;verticalAlign=middle;whiteSpace=wrap;rounded=0;fontFamily=Pacifico;fontSource=https%3A%2F%2Ffonts.googleapis.com%2Fcss%3Ffamily%3DPacifico;fontColor=#56517E;fontSize=36;" vertex="1" parent="1">
          <mxGeometry x="1480" y="420" width="240" height="40" as="geometry" />
        </mxCell>
        <mxCell id="EgVaRRaSBaKRcsh8KBnX-22" value="&lt;font data-font-src=&quot;https://fonts.googleapis.com/css?family=Pacifico&quot; face=&quot;Pacifico&quot; style=&quot;font-size: 24px;&quot;&gt;Upstream Gradient&lt;/font&gt;" style="text;html=1;align=center;verticalAlign=middle;whiteSpace=wrap;rounded=0;fontColor=#D79B00;" vertex="1" parent="1">
          <mxGeometry x="830" y="480" width="220" height="80" as="geometry" />
        </mxCell>
        <mxCell id="EgVaRRaSBaKRcsh8KBnX-24" value="&lt;font style=&quot;font-size: 24px;&quot; face=&quot;Pacifico&quot; data-font-src=&quot;https://fonts.googleapis.com/css?family=Pacifico&quot;&gt;Downstream Gradients&lt;/font&gt;" style="text;html=1;align=center;verticalAlign=middle;whiteSpace=wrap;rounded=0;fontColor=#D79B00;" vertex="1" parent="1">
          <mxGeometry x="190" y="320" width="240" height="80" as="geometry" />
        </mxCell>
        <mxCell id="EgVaRRaSBaKRcsh8KBnX-25" value="&lt;font style=&quot;font-size: 24px;&quot; face=&quot;Pacifico&quot; data-font-src=&quot;https://fonts.googleapis.com/css?family=Pacifico&quot;&gt;Local Gradients&lt;/font&gt;" style="text;html=1;align=center;verticalAlign=middle;whiteSpace=wrap;rounded=0;fontColor=#D79B00;" vertex="1" parent="1">
          <mxGeometry x="610" y="440" width="140" height="80" as="geometry" />
        </mxCell>
        <mxCell id="EgVaRRaSBaKRcsh8KBnX-26" value="&lt;font style=&quot;font-size: 29px;&quot; face=&quot;Pacifico&quot; data-font-src=&quot;https://fonts.googleapis.com/css?family=Pacifico&quot;&gt;Downstream Gradients = Upstream Gradient \( \times \) Local Gradients&lt;/font&gt;" style="text;html=1;align=center;verticalAlign=middle;whiteSpace=wrap;rounded=0;fontColor=#D79B00;" vertex="1" parent="1">
          <mxGeometry x="1120" y="260" width="880" height="80" as="geometry" />
        </mxCell>
        <mxCell id="EgVaRRaSBaKRcsh8KBnX-30" style="rounded=0;orthogonalLoop=1;jettySize=auto;html=1;strokeWidth=5;entryX=0.25;entryY=1;entryDx=0;entryDy=0;sketch=1;curveFitting=1;jiggle=2;fillColor=#bac8d3;strokeColor=#23445D;" edge="1" parent="1">
          <mxGeometry relative="1" as="geometry">
            <mxPoint x="1299.41" y="420" as="sourcePoint" />
            <mxPoint x="1299.4100000000005" y="339.9999999999998" as="targetPoint" />
          </mxGeometry>
        </mxCell>
        <mxCell id="EgVaRRaSBaKRcsh8KBnX-31" style="rounded=0;orthogonalLoop=1;jettySize=auto;html=1;strokeWidth=5;entryX=0.25;entryY=1;entryDx=0;entryDy=0;sketch=1;curveFitting=1;jiggle=2;fillColor=#d0cee2;strokeColor=#56517e;" edge="1" parent="1">
          <mxGeometry relative="1" as="geometry">
            <mxPoint x="1599.57" y="420" as="sourcePoint" />
            <mxPoint x="1599.57" y="340" as="targetPoint" />
          </mxGeometry>
        </mxCell>
        <mxCell id="EgVaRRaSBaKRcsh8KBnX-32" style="rounded=0;orthogonalLoop=1;jettySize=auto;html=1;strokeWidth=5;entryX=0.25;entryY=1;entryDx=0;entryDy=0;sketch=1;curveFitting=1;jiggle=2;fillColor=#b0e3e6;strokeColor=#0E8088;" edge="1" parent="1">
          <mxGeometry relative="1" as="geometry">
            <mxPoint x="1840" y="420" as="sourcePoint" />
            <mxPoint x="1840" y="340" as="targetPoint" />
          </mxGeometry>
        </mxCell>
        <mxCell id="EgVaRRaSBaKRcsh8KBnX-33" value="Backward Propagation" style="text;html=1;align=center;verticalAlign=middle;whiteSpace=wrap;rounded=0;fontFamily=Pacifico;fontSource=https%3A%2F%2Ffonts.googleapis.com%2Fcss%3Ffamily%3DPacifico;fontColor=#B85450;fontSize=36;" vertex="1" parent="1">
          <mxGeometry x="490" y="650" width="440" height="40" as="geometry" />
        </mxCell>
        <mxCell id="EgVaRRaSBaKRcsh8KBnX-35" value="&lt;font color=&quot;#23445d&quot; style=&quot;font-size: 24px;&quot;&gt;Outgoing Gradients&lt;/font&gt;" style="text;html=1;align=center;verticalAlign=middle;whiteSpace=wrap;rounded=0;fontFamily=Pacifico;fontSource=https%3A%2F%2Ffonts.googleapis.com%2Fcss%3Ffamily%3DPacifico;fontColor=#B85450;fontSize=36;" vertex="1" parent="1">
          <mxGeometry x="1180" y="420" width="240" height="40" as="geometry" />
        </mxCell>
        <mxCell id="EgVaRRaSBaKRcsh8KBnX-36" value="&lt;font style=&quot;font-size: 24px;&quot;&gt;Activation Function Gradients&lt;/font&gt;" style="text;html=1;align=center;verticalAlign=middle;whiteSpace=wrap;rounded=0;fontFamily=Pacifico;fontSource=https%3A%2F%2Ffonts.googleapis.com%2Fcss%3Ffamily%3DPacifico;fontColor=#0E8088;fontSize=36;" vertex="1" parent="1">
          <mxGeometry x="1750" y="420" width="220" height="80" as="geometry" />
        </mxCell>
      </root>
    </mxGraphModel>
  </diagram>
</mxfile>
